<svg xmlns="http://www.w3.org/2000/svg" viewBox="0 0 336.76 90"><defs><style>.cls-1{fill:#d10a0a;}.cls-2{fill:#d10b0b;}.cls-3{fill:#fff;}</style></defs><title>UFC_Conf_1</title><g id="Capa_2" data-name="Capa 2"><g id="Capa_1-2" data-name="Capa 1"><path class="cls-1" d="M79.58,9.09a41.92,41.92,0,0,1-1.31,5q-8,28.67-15.93,57.31a13.8,13.8,0,0,1-3.46,6.23,12.7,12.7,0,0,1-7,3.26,43.74,43.74,0,0,1-8.23.74c-10,0-20.07,0-30.11,0A17.41,17.41,0,0,1,5,79.59a8.9,8.9,0,0,1-4.91-6.3,9.25,9.25,0,0,1,.31-4.21q8.34-30,16.65-60H41.85q-4.51,16.23-9,32.46Q29.94,52,27.05,62.44a2.15,2.15,0,0,0,1.23,2.78,3.54,3.54,0,0,0,1.64.45c2.11,0,4.21.07,6.31,0,2.37-.11,3.22-.86,3.83-3.07Q47,37.64,53.93,12.7a17.3,17.3,0,0,0,.88-3.61Z"/><path class="cls-1" d="M209.69,9.09c-1.39,5-2.78,10-4.13,15.07a1,1,0,0,1-1.16.88q-13,0-26,0c-.62,0-1.25.07-1.88.14a3.3,3.3,0,0,0-3.12,2.66c-.88,3.26-1.81,6.51-2.72,9.77l-6.81,24.6a2.39,2.39,0,0,0,1.78,3.28,6.8,6.8,0,0,0,2.11.22H196c-.48,1.78-.95,3.48-1.42,5.18-.92,3.34-1.86,6.67-2.76,10a.91.91,0,0,1-1.06.79c-13.12,0-26.25,0-39.37,0a15.65,15.65,0,0,1-10.24-3.32,7.88,7.88,0,0,1-2.9-8.7q7-25.24,14-50.45c1.06-3.78,3.1-6.86,6.93-8.39a24.34,24.34,0,0,1,6.13-1.39A3.72,3.72,0,0,0,167,9.09Z"/><path class="cls-1" d="M144.88,9.09c-.49,2.34-1.24,4.62-1.86,6.94-.73,2.74-1.52,5.46-2.26,8.19-.15.58-.37.82-1,.82q-25.93,0-51.89,0c-.7,0-.79-.14-.6-.81C88.62,19.37,90,14.5,91.3,9.64c0-.18.06-.37.1-.55Z"/><path class="cls-2" d="M118.6,52.05c-4.54,0-9.08,0-13.62,0a.81.81,0,0,0-.94.72c-2.56,9.33-5.16,18.66-7.73,28-.18.67-.43,1-1.19.94q-11.49,0-23,0c-.72,0-.85-.13-.64-.86q6.13-22,12.2-44A.91.91,0,0,1,84.76,36q25.92,0,51.84,0c.78,0,.81.21.62.88q-2,7.2-4,14.43c-.16.6-.45.73-1,.72-4.53,0-9.07,0-13.61,0Z"/><path class="cls-3" d="M235.43,72.57c-3.58,0-6.35-.75-8.33-2.24a11.65,11.65,0,0,1-4.12-6,29.21,29.21,0,0,1-1.15-8.49V38A30.86,30.86,0,0,1,223,29a10.82,10.82,0,0,1,4.12-5.89c2-1.39,4.75-2.09,8.33-2.09A14.09,14.09,0,0,1,243,22.79a9.76,9.76,0,0,1,4,5,22.25,22.25,0,0,1,1.21,7.79v4h-6.67V36a38.34,38.34,0,0,0-.28-5,5.44,5.44,0,0,0-1.53-3.34c-.83-.79-2.22-1.18-4.18-1.18a6.24,6.24,0,0,0-4.37,1.28,6.24,6.24,0,0,0-1.77,3.61,32.33,32.33,0,0,0-.41,5.46v20a22.92,22.92,0,0,0,.63,6,5.31,5.31,0,0,0,2.05,3.15,7.06,7.06,0,0,0,3.87.93c1.91,0,3.29-.42,4.12-1.28a6.08,6.08,0,0,0,1.56-3.52,38.36,38.36,0,0,0,.31-5.24V53.24h6.67V57A26.78,26.78,0,0,1,247,65.12a10.42,10.42,0,0,1-3.87,5.49C241.33,71.92,238.76,72.57,235.43,72.57Z"/><path class="cls-3" d="M264.25,72.51a10.8,10.8,0,0,1-6.3-1.62,8.73,8.73,0,0,1-3.28-4.62,23.11,23.11,0,0,1-1-7V48.75a23.11,23.11,0,0,1,1-7A8.73,8.73,0,0,1,258,37.08a10.8,10.8,0,0,1,6.3-1.62,10.66,10.66,0,0,1,6.27,1.62,8.83,8.83,0,0,1,3.24,4.62,23.09,23.09,0,0,1,1,7V59.22a23.09,23.09,0,0,1-1,7,8.83,8.83,0,0,1-3.24,4.62A10.66,10.66,0,0,1,264.25,72.51Zm0-4.93A3.06,3.06,0,0,0,267,66.46a6.1,6.1,0,0,0,.94-3q.15-1.84.15-3.84V48.37q0-2.05-.15-3.87a6.24,6.24,0,0,0-.94-3,3,3,0,0,0-2.71-1.15,3.12,3.12,0,0,0-2.75,1.15,5.93,5.93,0,0,0-1,3c-.11,1.21-.16,2.5-.16,3.87V59.66c0,1.33.05,2.61.16,3.84a5.8,5.8,0,0,0,1,3A3.16,3.16,0,0,0,264.25,67.58Z"/><path class="cls-3" d="M280.84,72V36h6.67v3.55a19.6,19.6,0,0,1,4-2.87,9.86,9.86,0,0,1,4.8-1.18,4.6,4.6,0,0,1,3.34,1.12,6.12,6.12,0,0,1,1.62,2.81,12.84,12.84,0,0,1,.47,3.43V72h-6.68V44.75a6.55,6.55,0,0,0-.56-3,2.35,2.35,0,0,0-2.31-1.06,5,5,0,0,0-2.34.65,14.64,14.64,0,0,0-2.34,1.59V72Z"/><path class="cls-3" d="M310.34,72V40.88H306V36h4.3V34.09a27.33,27.33,0,0,1,.53-5.77,6.31,6.31,0,0,1,2.22-3.72,8.17,8.17,0,0,1,5.05-1.31c.83,0,1.57,0,2.22.1a20.91,20.91,0,0,1,2.15.34V28.6a12.35,12.35,0,0,0-1.25-.22,9.66,9.66,0,0,0-1.25-.09c-1.29,0-2.11.42-2.46,1.27A8.94,8.94,0,0,0,317,33v3h5.49v4.92H317V72Z"/><path class="cls-3" d="M324.94,72V64.59h6.67V72Z"/><rect class="cls-3" x="181.76" y="86" width="95" height="4"/><rect class="cls-3" x="203.76" width="133" height="4"/></g></g></svg>